<?xml version="1.0" encoding="iso-8859-1"?>
<!-- Generator: Adobe Illustrator 19.0.0, SVG Export Plug-In . SVG Version: 6.00 Build 0)  -->
<svg version="1.1" id="Capa_1" xmlns="http://www.w3.org/2000/svg" xmlns:xlink="http://www.w3.org/1999/xlink" x="0px" y="0px"
	 viewBox="0 0 406.855 406.855" style="enable-background:new 0 0 406.855 406.855;" xml:space="preserve">
<g>
	<g>
		<path d="M395.79,298.067c-1.421-1.529-2.955-2.948-4.59-4.245l-161.04-138.4l16.56-17.68c1.909,0.275,3.832,0.435,5.76,0.48
			c8.326,0.401,16.434-2.738,22.32-8.64c8-8.72,9.6-22.24,3.92-38.08c-6.12-15.811-15.813-29.994-28.32-41.44
			c-29.52-27.76-65.04-36.32-80.72-19.6c-6.617,7.929-9,18.565-6.4,28.56l-77.12,82c-10.128-2.035-20.615,0.944-28.16,8
			c-16,16.72-4.88,51.6,24.72,79.36c19.36,18.16,41.28,28.08,58.48,28.08c8.287,0.399,16.359-2.708,22.24-8.56
			c6.617-7.929,9-18.565,6.4-28.56l16.56-17.44l148.8,152.48c15.551,16.732,41.721,17.688,58.453,2.137
			S411.341,314.799,395.79,298.067z M181.04,41.423c8-8.64,34.64-1.76,58.16,20.32c10.747,9.641,19.124,21.632,24.48,35.04
			c3.52,9.76,3.28,17.68-0.48,21.68c-5.76,4.092-13.209,4.966-19.76,2.32l-63.36-59.44C176.973,54.975,177.335,47.462,181.04,41.423
			z M151.76,237.263c-8,8.64-34.64,1.76-58.16-20.32s-32-48-24-56.72c5.76-4.092,13.209-4.966,19.76-2.32l63.44,59.44
			C155.898,223.721,155.505,231.242,151.76,237.263z M175.2,190.543l-12.8,13.76l-60.56-56.88l68.56-73.04l60.56,57.04l-34.32,36.64
			L175.2,190.543z M382,341.503c-9.497,10.116-25.359,10.722-35.6,1.36l-148.96-152.56l21.84-23.28l161.6,138.64
			C391.084,315.252,391.585,331.296,382,341.503z"/>
	</g>
</g>
<g>
	<g>
		<path d="M155.78,325.248c-0.06,0.005-0.12,0.009-0.18,0.014h-0.4v-2.72c-0.474-8.81-7.989-15.574-16.8-15.12H33.68
			c-8.75-0.363-16.166,6.375-16.64,15.12v2.72h-0.4c-8.452-0.73-15.895,5.529-16.626,13.98c-0.005,0.06-0.01,0.12-0.014,0.18v31.2
			c0.587,8.463,7.924,14.847,16.387,14.26c0.085-0.006,0.169-0.012,0.253-0.02H155.6c8.452,0.727,15.893-5.535,16.62-13.987
			c0.007-0.084,0.014-0.169,0.02-0.253v-31.2C171.609,330.963,164.239,324.617,155.78,325.248z M156.24,368.863H16v-27.6h9.04
			c4.418,0,8-3.582,8-8v-9.84H139.2v9.76c0,4.418,3.582,8,8,8h9.04V368.863z"/>
	</g>
</g>
<g>
</g>
<g>
</g>
<g>
</g>
<g>
</g>
<g>
</g>
<g>
</g>
<g>
</g>
<g>
</g>
<g>
</g>
<g>
</g>
<g>
</g>
<g>
</g>
<g>
</g>
<g>
</g>
<g>
</g>
</svg>
